<?xml version="1.0" encoding="UTF-8" standalone="no"?>
<!-- Created with Inkscape (http://www.inkscape.org/) -->

<svg
   xmlns:dc="http://purl.org/dc/elements/1.1/"
   xmlns:cc="http://creativecommons.org/ns#"
   xmlns:rdf="http://www.w3.org/1999/02/22-rdf-syntax-ns#"
   xmlns:svg="http://www.w3.org/2000/svg"
   xmlns="http://www.w3.org/2000/svg"
   xmlns:sodipodi="http://sodipodi.sourceforge.net/DTD/sodipodi-0.dtd"
   xmlns:inkscape="http://www.inkscape.org/namespaces/inkscape"
   width="744.09448819"
   height="1052.3622047"
   id="svg2"
   version="1.1"
   inkscape:version="0.48.4 r9939"
   sodipodi:docname="logo.svg">
  <defs
     id="defs4">
    <clipPath
       clipPathUnits="userSpaceOnUse"
       id="clipPath3305">
      <rect
         style="fill:#b0d395;fill-opacity:1;fill-rule:nonzero;stroke:none"
         id="rect3307"
         width="287.32837"
         height="193.00214"
         x="844.3576"
         y="200.09126"
         ry="0.67313641" />
    </clipPath>
  </defs>
  <sodipodi:namedview
     id="base"
     pagecolor="#ffffff"
     bordercolor="#666666"
     borderopacity="1.0"
     inkscape:pageopacity="0.0"
     inkscape:pageshadow="2"
     inkscape:zoom="0.56729519"
     inkscape:cx="372.04724"
     inkscape:cy="596.69112"
     inkscape:document-units="px"
     inkscape:current-layer="layer1"
     showgrid="false"
     inkscape:window-width="1323"
     inkscape:window-height="744"
     inkscape:window-x="43"
     inkscape:window-y="24"
     inkscape:window-maximized="1" />
  <metadata
     id="metadata7">
    <rdf:RDF>
      <cc:Work
         rdf:about="">
        <dc:format>image/svg+xml</dc:format>
        <dc:type
           rdf:resource="http://purl.org/dc/dcmitype/StillImage" />
        <dc:title></dc:title>
      </cc:Work>
    </rdf:RDF>
  </metadata>
  <g
     inkscape:label="Layer 1"
     inkscape:groupmode="layer"
     id="layer1">
    <g
       id="g3359"
       transform="translate(2.465188e-8,-742.11805)"
       inkscape:export-xdpi="200"
       inkscape:export-ydpi="200"
       inkscape:export-filename="/home/massimiliano/tensorbag/etc/img/logo.png">
      <rect
         ry="0.79799491"
         y="763.27112"
         x="8.8137693"
         height="213.29283"
         width="724.4906"
         id="rect3339"
         style="fill:#ffffff;fill-opacity:1;fill-rule:nonzero;stroke:none" />
      <g
         id="g3309"
         transform="matrix(0.18341709,0,0,0.18341709,316.11648,780.72418)">
        <path
           id="path3311"
           d="M 1.5,193.6 C 1.7,190.9 4.3,190.4 6,189.4 54.7,161.7 103.5,134 152.2,106.3 213.8,71.5 275.3,36.7 336.8,1.7 c 3.9,-2.2 6.9,-2.3 10.9,0.1 58.2,33.7 116.4,67.2 174.7,100.7 23.3,13.4 46.8,26.7 70.1,40.2 2.2,1.2 5,2 5.7,5 -0.8,0.2 -1.7,0.1 -2.4,0.5 -14.6,8.5 -29.2,17.1 -43.9,25.6 -12.8,7.4 -25.6,14.7 -38.4,22 -0.3,-0.1 -0.6,-0.1 -0.9,0 -5.9,-3.5 -11.7,-7 -17.6,-10.4 -49,-28.5 -98,-57 -147,-85.5 -1.4,-0.8 -3,-2.4 -4.5,-1.7 -2,0.9 -0.9,3.3 -0.9,5 -0.1,30.2 -0.1,60.3 -0.1,90.5 -1.5,-1.7 -0.8,-3.8 -0.8,-5.8 0,-28.5 0,-57 -0.1,-85.5 0,-1.4 0.8,-3.3 -0.8,-4.1 -1.5,-0.7 -2.7,0.8 -3.9,1.5 -17.6,10 -35.2,20.1 -52.8,30.1 -30.5,17.3 -61,34.5 -91.5,51.8 -35.7,20.3 -71.3,40.6 -106.9,61 C 57.6,226.4 29.6,210 1.5,193.6 z"
           inkscape:connector-curvature="0"
           style="fill:#f7ba47" />
        <path
           id="path3313"
           d="m 256.7,634.2 c -6,-1.7 -10.9,-5.6 -16.1,-8.6 -22,-12.5 -43.8,-25.3 -65.7,-38 -2.3,-1.3 -3.7,-2.7 -3.7,-5.8 0.1,-96.1 0.1,-192.2 0.1,-288.4 0,-0.2 0,-0.3 0.1,-0.5 1.3,-1 2.5,-2.2 3.9,-3 25.3,-14.2 50.7,-28.4 76.1,-42.6 5.1,-2.9 5.2,-2.8 5.2,3 0,30.1 0.1,60.3 0.1,90.4 0.8,2.3 3.1,2.9 4.9,3.9 7.2,4.1 14.5,8.2 21.7,12.2 19.7,11 39.5,22 59.2,32.9 0,3.7 0,7.3 0,11 0.1,28.7 0.1,57.4 0.2,86.1 0,0 0.1,-0.1 0.1,-0.1 -1.1,-0.3 -2.3,-0.4 -3.3,-0.9 -12.9,-7.5 -25.8,-15 -38.8,-22.5 -13.2,-7.7 -26.5,-15.2 -39.6,-23 -3.9,-2.3 -4.7,-1.2 -4.6,2.9 0.2,9.3 0.1,18.6 0.1,28 0.1,54.4 0.1,108.7 0.1,163 z"
           inkscape:connector-curvature="0"
           style="fill:#ed6636" />
        <path
           id="path3315"
           d="m 256.7,340.8 c 0,-30.1 -0.1,-60.3 -0.1,-90.4 0,-5.8 -0.1,-5.9 -5.2,-3 -25.4,14.1 -50.7,28.3 -76.1,42.6 -1.4,0.8 -2.6,2 -3.9,3 -5.6,0.9 -9.8,4.5 -14.5,7.1 -22.9,12.7 -45.7,25.6 -68.6,38.5 -0.8,0.5 -1.8,0.7 -2.7,1.1 0,-32.3 0,-64.6 0,-96.8 35.6,-20.3 71.3,-40.7 106.9,-61 30.5,-17.3 61,-34.5 91.5,-51.8 17.6,-10 35.2,-20 52.8,-30.1 1.3,-0.7 2.5,-2.3 3.9,-1.5 1.6,0.8 0.8,2.7 0.8,4.1 0,28.5 0,57 0.1,85.5 0,1.9 -0.7,4 0.8,5.8 0.1,0.3 0.1,0.6 0.1,1 0,32.7 0.1,65.3 0.1,98 -2.1,-0.2 -3.9,0.8 -5.6,1.8 -19.3,11.3 -38.5,22.6 -57.9,33.8 -7.3,4.1 -14.5,8.9 -22.4,12.3 z"
           inkscape:connector-curvature="0"
           style="fill:#f1933f" />
        <path
           id="path3317"
           d="m 342.6,194.7 c 0,-0.3 0,-0.7 -0.1,-1 0,-30.2 0,-60.3 0.1,-90.5 0,-1.7 -1.1,-4 0.9,-5 1.5,-0.7 3.1,0.9 4.5,1.7 49,28.5 98,57 147,85.5 5.9,3.4 11.7,6.9 17.6,10.4 0,29.6 0,59.3 0,88.9 0,2.7 -0.3,4.9 -3,6 -0.9,0 -1.6,-0.2 -2,-1.1 -0.3,-2.1 -1.9,-1.9 -3.3,-1.8 -0.8,-0.1 -1.4,-0.4 -1.7,-1.2 -0.3,-3.3 -2.7,-2.9 -5,-3 0,0 0,0 0,0 -0.2,-1.2 -0.4,-2.5 -2,-1 -0.9,0.1 -1.6,-0.3 -2,-1.1 -0.3,-2 -1.8,-1.8 -3.2,-1.8 -17.3,-9.9 -34.6,-19.8 -51.9,-29.7 -32,-18.4 -63.9,-36.8 -95.9,-55.3 z"
           inkscape:connector-curvature="0"
           style="fill:#ed6636" />
        <path
           id="path3319"
           d="m 256.7,634.2 c 0,-54.3 -0.1,-108.5 -0.1,-162.8 0,-9.3 0.1,-18.6 -0.1,-28 -0.1,-4.1 0.7,-5.2 4.6,-2.9 13.2,7.8 26.4,15.3 39.6,23 12.9,7.5 25.8,15 38.8,22.5 1,0.6 2.2,0.6 3.3,0.9 -0.1,3.8 -0.4,7.6 -0.4,11.5 0,27.3 -0.1,54.6 0,82 0,3.1 -0.6,5.3 -3.5,7 -26.1,15 -52.1,30.2 -78.2,45.3 -1.1,0.6 -2.3,1.7 -4,1.5 z"
           inkscape:connector-curvature="0"
           style="fill:#f1933f" />
        <path
           id="path3321"
           d="m 256.7,340.8 c 7.9,-3.4 15.1,-8.2 22.5,-12.5 19.4,-11.1 38.6,-22.5 57.9,-33.8 1.7,-1 3.4,-2 5.6,-1.8 17.4,9.7 34.9,19.3 52.3,29 9.9,5.5 19.7,11.1 29.6,16.6 1.1,0.6 2.6,0.9 2.9,2.5 -5.6,3.2 -11.3,6.4 -16.9,9.6 -22.7,13.1 -45.4,26.3 -68,39.5 -19.7,-11 -39.5,-22 -59.2,-32.9 -7.3,-4 -14.5,-8.1 -21.7,-12.2 -1.9,-1.1 -4.2,-1.7 -5,-4 z"
           inkscape:connector-curvature="0"
           style="fill:#f7ba47" />
        <path
           id="path3323"
           d="m 85.6,242.8 c 0,32.3 0,64.6 0,96.8 C 72.2,332.9 59.8,324.6 46.8,317.2 32.8,309.2 19,300.9 4.9,293 1.4,291 0,288.6 0,284.6 c 0.1,-28.7 0,-57.3 0.1,-86 0,-1.8 -0.4,-3.7 1.5,-5 28,16.4 56,32.8 84,49.2 z"
           inkscape:connector-curvature="0"
           style="fill:#ed6636" />
        <path
           id="path3325"
           d="m 342.6,389.9 c 22.7,-13.2 45.3,-26.3 68,-39.5 5.6,-3.2 11.2,-6.4 16.9,-9.6 0.1,4.6 0.3,9.3 0.4,13.9 0,26.1 0,52.2 0.1,78.3 0,3.1 -0.5,5.2 -3.5,6.9 -26.8,15.4 -53.4,31 -80.2,46.5 -0.4,0.2 -0.9,0.3 -1.4,0.5 -0.1,-28.7 -0.1,-57.4 -0.2,-86.1 -0.1,-3.6 -0.1,-7.3 -0.1,-10.9 z"
           inkscape:connector-curvature="0"
           style="fill:#f1933f" />
        <path
           id="path3327"
           d="m 513.6,195.9 c 12.8,-7.3 25.6,-14.6 38.4,-22 14.6,-8.5 29.2,-17.1 43.9,-25.6 0.7,-0.4 1.6,-0.4 2.4,-0.5 0.9,1.7 0.7,3.6 0.7,5.4 0,28.3 -0.1,56.6 0.1,84.9 0,3.9 -1,6.3 -4.6,8.4 -25.3,14.6 -50.5,29.4 -75.8,44.1 -1.5,0.9 -2.9,2.3 -5,1.8 -0.1,-32.2 -0.1,-64.4 -0.1,-96.5 z"
           inkscape:connector-curvature="0"
           style="fill:#f1933f" />
        <path
           id="path3329"
           d="m 513.6,195.9 c 0,32.1 0,64.3 0,96.4 -1.7,0.5 -2.8,-0.6 -4,-1.6 2.8,-1.1 3,-3.3 3,-6 -0.1,-29.6 0,-59.3 0,-88.9 0.3,0 0.6,0 1,0.1 z"
           inkscape:connector-curvature="0"
           style="fill:#ed6736" />
        <path
           id="path3331"
           d="m 497.7,283.7 c 2.2,0 4.7,-0.3 5,3 -2,-0.6 -3.8,-1.3 -5,-3 z"
           inkscape:connector-curvature="0"
           style="fill:#ed6736" />
        <path
           id="path3333"
           d="m 504.3,287.9 c 1.5,-0.1 3,-0.3 3.3,1.8 -1.2,-0.4 -2.5,-0.7 -3.3,-1.8 z"
           inkscape:connector-curvature="0"
           style="fill:#ed6736" />
        <path
           id="path3335"
           d="m 490.4,279.8 c 1.4,-0.1 2.9,-0.3 3.2,1.8 -1.2,-0.3 -2.4,-0.7 -3.2,-1.8 z"
           inkscape:connector-curvature="0"
           style="fill:#ed6736" />
        <path
           id="path3337"
           d="m 495.6,282.7 c 1.6,-1.4 1.8,-0.2 2,1 -0.6,-0.3 -1.3,-0.7 -2,-1 z"
           inkscape:connector-curvature="0"
           style="fill:#ed6736" />
      </g>
      <g
         id="g3341"
         transform="matrix(0.80748967,0,0,0.80748967,29.333855,807.06913)">
        <flowRoot
           transform="matrix(1.5035216,0,0,1.5035216,175.79112,-708.12003)"
           style="font-size:40px;font-style:normal;font-variant:normal;font-weight:normal;font-stretch:normal;line-height:125%;letter-spacing:0px;word-spacing:0px;fill:#abacae;fill-opacity:1;stroke:none;font-family:cmr10;-inkscape-font-specification:cmr10"
           id="flowRoot3343"
           xml:space="preserve"><flowRegion
             id="flowRegion3345"><rect
               style="fill:#abacae;fill-opacity:1"
               y="548.21545"
               x="197.42809"
               height="167.46132"
               width="669.84528"
               id="rect3347" /></flowRegion><flowPara
             style="font-size:45.22715378px;font-style:normal;font-variant:normal;font-weight:normal;font-stretch:normal;fill:#abacae;fill-opacity:1;font-family:esint10;-inkscape-font-specification:esint10"
             id="flowPara3349">Bag</flowPara></flowRoot>        <flowRoot
           transform="matrix(1.6804346,0,0,1.6804346,-83.143789,-805.516)"
           style="font-size:40px;font-style:normal;font-variant:normal;font-weight:normal;font-stretch:normal;line-height:125%;letter-spacing:0px;word-spacing:0px;fill:#ee642e;fill-opacity:1;stroke:none;font-family:cmr10;-inkscape-font-specification:cmr10"
           id="flowRoot3351"
           xml:space="preserve"><flowRegion
             id="flowRegion3353"><rect
               style="fill:#ee642e;fill-opacity:1"
               y="548.21545"
               x="197.42809"
               height="167.46132"
               width="669.84528"
               id="rect3355" /></flowRegion><flowPara
             style="font-size:40.46572113px;font-style:normal;font-variant:normal;font-weight:normal;font-stretch:normal;fill:#ee642e;fill-opacity:1;font-family:esint10;-inkscape-font-specification:esint10"
             id="flowPara3357">Tensor</flowPara></flowRoot>      </g>
    </g>
  </g>
</svg>
